<?xml version="1.0" encoding="utf-8"?>
<!-- Generator: Adobe Illustrator 26.5.3, SVG Export Plug-In . SVG Version: 6.00 Build 0)  -->
<svg version="1.1" id="Capa_1" xmlns="http://www.w3.org/2000/svg" xmlns:xlink="http://www.w3.org/1999/xlink" x="0px" y="0px"
	 viewBox="0 0 160 100" style="enable-background:new 0 0 160 100;" xml:space="preserve">
<style type="text/css">
	.st0{fill:#A35709;}
	.st1{fill:#7808D4;}
</style>
<g>
	<polygon class="st0" points="30.76,66.91 30.76,25 22.67,25 22.67,66.91 22.67,75 30.76,75 45.07,75 45.07,66.91 	"/>
	<rect x="50.31" y="25" class="st1" width="8.23" height="8.48"/>
	<rect x="50.38" y="38.7" class="st0" width="8.09" height="36.3"/>
	<path class="st0" d="M87.4,70.51c0,3-1.52,4.49-4.57,4.49H69c-3.04,0-4.57-1.5-4.57-4.49v-7.8h7.87v6.11h7.23v-5.75l-12.62-7.44
		c-1.65-0.98-2.48-2.3-2.48-3.95v-8.48c0-3,1.55-4.49,4.64-4.49h13.7c3.04,0,4.57,1.5,4.57,4.49v7.3h-7.8v-5.61H72.3v5.25
		l12.58,7.37c1.68,0.96,2.52,2.3,2.52,4.03V70.51z"/>
	<path class="st0" d="M108.82,75h-9.13c-3.04,0-4.57-1.5-4.57-4.49V45.7h-3.88V38.7h3.88v-9.85h8.2v9.85h5.28v7.01h-5.28v22.29h5.5
		V75z"/>
	<path class="st0" d="M137.33,70.51c0,3-1.52,4.49-4.57,4.49h-14.74c-3.09,0-4.64-1.5-4.64-4.49V43.19c0-3,1.55-4.49,4.64-4.49
		h14.74c3.04,0,4.57,1.5,4.57,4.49V70.51z M129.28,68.17V45.56h-7.8v22.61H129.28z"/>
</g>
</svg>
